<svg xmlns="http://www.w3.org/2000/svg" width="1921.698" height="623.685" viewBox="0 0 1921.698 623.685">
  <path id="Tracé_65" data-name="Tracé 65" d="M134.064,472.215c-2.141,1.583-.012,535.96-.012,535.96s51.641,40.551,155.765,34c105.319-6.628,264.552-65.846,426.6-82.62,310.7-20.622,299.707,111.358,622.782,133.355,519.669,22,714.8-84.51,714.8-84.51s1.81-299.422,0-301.049c-198.308-126.9-275.257-107.7-352.705-103.475s-200.7,74.269-281.633,68.495S1149.585,517.333,979,547.826s-273.758,187.2-439.933,186.125S165.764,481.2,134.064,472.215Z" transform="translate(-133.11 -472.215)" fill="#274690"/>
</svg>
